# xmcd
#
# Track frame offsets: 
#        150
#        15246
#        35055
#        48048
#        68122
#        81096
#        93262
#        109308
#        124642
#        138224
#        157644
#        174699
#        189704
#
# Disc length: 2795 seconds
#
# Revision: 1
# Processed by: cddbd v1.5.2PL0 Copyright (c) Steve Scherf et al.
# Submitted via: ExactAudioCopyFreeDBPlugin 1.0
#
DISCID=9b0ae90d
DTITLE=Blues makers - Uzburtame rate
DYEAR=2001
DGENRE=
TTITLE0=Uzburtame rate
TTITLE1=Begti toli
TTITLE2=Kerai
TTITLE3=Pauksciai
TTITLE4=Man tas pats
TTITLE5=Dulketas kelias
TTITLE6=Atleisk
TTITLE7=Lietus
TTITLE8=Tik nesakyk
TTITLE9=I kelione
TTITLE10=Tylia nakti
TTITLE11=Autostradoj Vilnius-Kaunas
TTITLE12=Pauksciai (Brodvejaus versija)
EXTD=
EXTT0=
EXTT1=
EXTT2=
EXTT3=
EXTT4=
EXTT5=
EXTT6=
EXTT7=
EXTT8=
EXTT9=
EXTT10=
EXTT11=
EXTT12=
PLAYORDER=
